<?xml version="1.0" encoding="UTF-8"?>
<svg id="_レイヤー_1" data-name="レイヤー_1" xmlns="http://www.w3.org/2000/svg" viewBox="0 0 454.18 204.83">
  <g>
    <path d="M55.86,0h15.57l54.24,126.75h-20.05l-12.71-31.33h-60.33l-12.53,31.33H0L55.86,0ZM86.65,80.38l-23.63-58.18h-.36l-23.99,58.18h47.98Z"/>
    <path d="M139.28,0h17.19v126.75h-17.19V0Z"/>
    <path d="M184.21,0h16.11v54.96h.36c2.03-4.53,5.55-8.2,10.56-11.01,5.01-2.8,10.8-4.21,17.37-4.21,4.06,0,7.97.63,11.73,1.88,3.76,1.25,7.04,3.19,9.85,5.82,2.8,2.63,5.04,6,6.71,10.11,1.67,4.12,2.51,8.98,2.51,14.59v54.6h-16.11v-50.13c0-3.94-.54-7.31-1.61-10.12-1.07-2.8-2.51-5.07-4.3-6.8-1.79-1.73-3.85-2.98-6.18-3.76-2.33-.77-4.74-1.16-7.25-1.16-3.34,0-6.45.54-9.31,1.61s-5.37,2.77-7.52,5.1-3.82,5.28-5.01,8.86c-1.19,3.58-1.79,7.82-1.79,12.71v43.68h-16.11V0Z"/>
    <path d="M293.06,90.23c0,3.7.81,7.07,2.42,10.11,1.61,3.04,3.73,5.64,6.36,7.79,2.62,2.15,5.67,3.82,9.13,5.01,3.46,1.19,7.04,1.79,10.74,1.79,5.01,0,9.37-1.16,13.07-3.49,3.7-2.33,7.1-5.4,10.2-9.22l12.17,9.31c-8.95,11.58-21.48,17.37-37.59,17.37-6.69,0-12.74-1.14-18.17-3.4-5.43-2.27-10.03-5.4-13.79-9.4-3.76-4-6.65-8.71-8.68-14.14-2.03-5.43-3.04-11.31-3.04-17.63s1.1-12.2,3.31-17.63c2.21-5.43,5.25-10.14,9.13-14.14,3.88-4,8.5-7.13,13.87-9.4,5.37-2.27,11.22-3.4,17.54-3.4,7.52,0,13.87,1.31,19.07,3.94,5.19,2.63,9.46,6.06,12.8,10.29,3.34,4.24,5.76,9.01,7.25,14.32,1.49,5.31,2.24,10.71,2.24,16.2v5.73h-68.03ZM343.9,77.34c-.12-3.58-.69-6.86-1.7-9.85-1.02-2.98-2.54-5.58-4.57-7.79-2.03-2.21-4.57-3.94-7.61-5.19s-6.6-1.88-10.65-1.88-7.55.75-10.83,2.24c-3.28,1.49-6.06,3.43-8.33,5.82-2.27,2.39-4.03,5.04-5.28,7.97-1.25,2.93-1.88,5.82-1.88,8.68h50.84Z"/>
    <path d="M378.99,41.89h16.11v13.07h.36c2.03-4.53,5.55-8.2,10.56-11.01,5.01-2.8,10.8-4.21,17.37-4.21,4.06,0,7.97.63,11.73,1.88s7.04,3.19,9.85,5.82c2.8,2.63,5.04,6,6.71,10.11,1.67,4.12,2.51,8.98,2.51,14.59v54.6h-16.11v-50.13c0-3.94-.54-7.31-1.61-10.12-1.07-2.8-2.51-5.07-4.3-6.8-1.79-1.73-3.85-2.98-6.18-3.76-2.33-.77-4.74-1.16-7.25-1.16-3.34,0-6.44.54-9.31,1.61s-5.37,2.77-7.52,5.1c-2.15,2.33-3.82,5.28-5.01,8.86-1.2,3.58-1.79,7.82-1.79,12.71v43.68h-16.11V41.89Z"/>
  </g>
  <g>
    <path d="M72.64,169.32h3.44v10.98h.29l11.23-10.98h4.81l-12.27,11.73,13.09,13.67h-5.02l-11.84-12.7h-.29v12.7h-3.44v-25.39Z"/>
    <path d="M103.84,169.32h3.12l10.87,25.39h-4.02l-2.55-6.28h-12.09l-2.51,6.28h-4.02l11.19-25.39ZM110.01,185.43l-4.73-11.66h-.07l-4.81,11.66h9.61Z"/>
    <path d="M121.13,169.32h3.44v25.39h-3.44v-25.39Z"/>
    <path d="M131.1,169.32h3.44v10.54h13.16v-10.54h3.44v25.39h-3.44v-11.62h-13.16v11.62h-3.44v-25.39Z"/>
    <path d="M157.68,169.32h16.39v3.23h-12.95v7.57h12.05v3.23h-12.05v8.14h13.59v3.23h-17.04v-25.39Z"/>
    <path d="M179.59,169.32h4.52l13.99,20.87h.07v-20.87h3.44v25.39h-4.38l-14.13-20.87h-.07v20.87h-3.44v-25.39Z"/>
    <path d="M226.32,181.98c-.38-.48-.85-.88-1.42-1.2-.56-.32-1.25-.48-2.06-.48-.77,0-1.43.16-1.99.48-.56.32-.84.79-.84,1.42,0,.5.16.91.48,1.22.32.31.71.56,1.15.75.44.19.91.33,1.42.43s.93.18,1.29.25c.69.17,1.35.37,1.96.61.61.24,1.14.55,1.58.93.44.38.79.85,1.04,1.4.25.55.38,1.22.38,2.01,0,.96-.2,1.78-.61,2.46-.41.68-.93,1.24-1.58,1.67s-1.38.74-2.21.93c-.83.19-1.66.29-2.49.29-1.41,0-2.65-.22-3.71-.65-1.06-.43-2.01-1.22-2.85-2.37l2.44-2.01c.53.53,1.11.99,1.76,1.4.65.41,1.43.61,2.37.61.41,0,.82-.04,1.24-.13.42-.08.79-.21,1.11-.39s.59-.41.79-.68c.2-.27.3-.59.3-.95,0-.48-.15-.87-.45-1.18-.3-.31-.66-.56-1.08-.74-.42-.18-.86-.32-1.33-.43-.47-.11-.88-.2-1.24-.27-.69-.17-1.35-.36-1.97-.57-.62-.21-1.17-.5-1.65-.86-.48-.36-.86-.81-1.15-1.36-.29-.55-.43-1.23-.43-2.04,0-.88.19-1.66.56-2.31.37-.66.86-1.2,1.47-1.63s1.3-.75,2.08-.97c.78-.21,1.56-.32,2.35-.32,1.15,0,2.25.21,3.3.65s1.89,1.15,2.51,2.15l-2.51,1.9Z"/>
    <path d="M248.27,194.72h-3.23v-2.62h-.07c-.41.91-1.11,1.64-2.12,2.21s-2.16.84-3.48.84c-.84,0-1.63-.13-2.37-.38-.74-.25-1.39-.64-1.96-1.17-.56-.53-1.01-1.2-1.34-2.03-.33-.82-.5-1.8-.5-2.92v-10.94h3.23v10.04c0,.79.11,1.46.32,2.03.22.56.5,1.02.86,1.36.36.35.77.6,1.24.75.46.16.95.23,1.45.23.67,0,1.29-.11,1.87-.32.57-.21,1.08-.56,1.51-1.02.43-.47.76-1.06,1-1.78.24-.72.36-1.57.36-2.55v-8.75h3.23v17Z"/>
    <path d="M253.15,177.72h3.23v2.44h.07c.62-.91,1.48-1.61,2.56-2.12s2.21-.75,3.35-.75c1.32,0,2.5.23,3.57.68,1.06.45,1.97,1.09,2.73,1.9.75.81,1.33,1.76,1.74,2.85.41,1.09.61,2.25.61,3.5s-.2,2.44-.61,3.53c-.41,1.09-.99,2.03-1.74,2.83s-1.66,1.43-2.73,1.88c-1.06.45-2.25.68-3.57.68-1.22,0-2.37-.26-3.44-.77-1.08-.51-1.9-1.21-2.47-2.1h-.07v12.55h-3.23v-27.12ZM261.97,180.3c-.86,0-1.64.15-2.33.45s-1.28.71-1.76,1.22c-.48.51-.85,1.14-1.11,1.86-.26.73-.39,1.52-.39,2.39s.13,1.66.39,2.38c.26.73.63,1.35,1.11,1.87.48.51,1.06.92,1.76,1.22s1.47.45,2.33.45,1.64-.15,2.33-.45c.69-.3,1.28-.71,1.76-1.22.48-.51.85-1.14,1.11-1.87.26-.73.39-1.52.39-2.38s-.13-1.66-.39-2.39c-.26-.73-.63-1.35-1.11-1.86-.48-.51-1.06-.92-1.76-1.22-.69-.3-1.47-.45-2.33-.45Z"/>
    <path d="M275.07,177.72h3.23v2.44h.07c.62-.91,1.48-1.61,2.56-2.12s2.21-.75,3.35-.75c1.32,0,2.5.23,3.57.68,1.06.45,1.97,1.09,2.73,1.9.75.81,1.33,1.76,1.74,2.85.41,1.09.61,2.25.61,3.5s-.2,2.44-.61,3.53c-.41,1.09-.99,2.03-1.74,2.83s-1.66,1.43-2.73,1.88c-1.06.45-2.25.68-3.57.68-1.22,0-2.37-.26-3.44-.77-1.08-.51-1.9-1.21-2.47-2.1h-.07v12.55h-3.23v-27.12ZM283.89,180.3c-.86,0-1.64.15-2.33.45s-1.28.71-1.76,1.22c-.48.51-.85,1.14-1.11,1.86-.26.73-.39,1.52-.39,2.39s.13,1.66.39,2.38c.26.73.63,1.35,1.11,1.87.48.51,1.06.92,1.76,1.22s1.47.45,2.33.45,1.64-.15,2.33-.45c.69-.3,1.28-.71,1.76-1.22.48-.51.85-1.14,1.11-1.87.26-.73.39-1.52.39-2.38s-.13-1.66-.39-2.39c-.26-.73-.63-1.35-1.11-1.86-.48-.51-1.06-.92-1.76-1.22-.69-.3-1.47-.45-2.33-.45Z"/>
    <path d="M296.16,186.22c0-1.24.23-2.4.7-3.48.47-1.08,1.11-2.02,1.92-2.83.81-.81,1.77-1.45,2.87-1.92,1.1-.47,2.28-.7,3.55-.7s2.45.23,3.55.7c1.1.47,2.06,1.11,2.87,1.92.81.81,1.45,1.76,1.92,2.83.47,1.08.7,2.24.7,3.48s-.23,2.41-.7,3.5c-.47,1.09-1.11,2.03-1.92,2.83-.81.8-1.77,1.43-2.87,1.9-1.1.47-2.28.7-3.55.7s-2.45-.23-3.55-.7c-1.1-.47-2.06-1.1-2.87-1.9-.81-.8-1.45-1.75-1.92-2.83-.47-1.09-.7-2.25-.7-3.5ZM299.6,186.22c0,.86.13,1.66.39,2.38.26.73.63,1.35,1.11,1.87.48.51,1.06.92,1.76,1.22.69.3,1.47.45,2.33.45s1.64-.15,2.33-.45,1.28-.71,1.76-1.22c.48-.51.85-1.14,1.11-1.87s.39-1.52.39-2.38-.13-1.66-.39-2.39c-.26-.73-.63-1.35-1.11-1.86-.48-.51-1.06-.92-1.76-1.22s-1.47-.45-2.33-.45-1.64.15-2.33.45c-.69.3-1.28.71-1.76,1.22-.48.51-.85,1.14-1.11,1.86-.26.73-.39,1.52-.39,2.39Z"/>
    <path d="M318.28,177.72h3.23v2.62h.07c.22-.45.5-.87.86-1.24.36-.37.76-.69,1.2-.95.44-.26.93-.47,1.45-.63.53-.16,1.05-.23,1.58-.23s1,.07,1.43.21l-.14,3.48c-.26-.07-.53-.13-.79-.18-.26-.05-.53-.07-.79-.07-1.58,0-2.79.44-3.62,1.33-.84.89-1.25,2.26-1.25,4.12v8.54h-3.23v-17Z"/>
    <path d="M340.67,180.51h-4.63v7.71c0,.48.01.95.04,1.42.02.47.11.88.27,1.26.16.37.39.67.72.9s.79.34,1.42.34c.38,0,.78-.04,1.18-.11.41-.07.78-.2,1.11-.39v2.94c-.38.21-.88.36-1.49.45s-1.08.13-1.42.13c-1.24,0-2.21-.17-2.89-.52-.68-.35-1.18-.79-1.51-1.34-.32-.55-.51-1.17-.57-1.85-.06-.68-.09-1.37-.09-2.06v-8.86h-3.73v-2.8h3.73v-4.77h3.23v4.77h4.63v2.8Z"/>
    <path d="M363.58,169.32h3.12l10.87,25.39h-4.02l-2.55-6.28h-12.09l-2.51,6.28h-4.02l11.19-25.39ZM369.75,185.43l-4.73-11.66h-.07l-4.81,11.66h9.61Z"/>
    <path d="M380.87,169.32h3.44v25.39h-3.44v-25.39Z"/>
  </g>
</svg>